# xmcd
#
# Track frame offsets: 
#        150
#        15415
#        32365
#
# Disc length: 583 seconds
#
# Revision: 1
# Processed by: cddbd v1.5.2PL0 Copyright (c) Steve Scherf et al.
# Submitted via: ExactAudioCopy v0.95b3
#
DISCID=11024503
DTITLE=Joaquin Phoenix and Reese Witherspoon - Walk The Line (Songs from
DTITLE=the Original Motion Picture Soundtrack)
DYEAR=2005
DGENRE=Country
TTITLE0=Walk The Line - Joaquin Phoenix
TTITLE1=Ring Of Fire - Joaquin Phoenix
TTITLE2=Wildwood Flower - Reese Witherspoon
EXTD=YEAR: 2006
EXTT0=
EXTT1=
EXTT2=
PLAYORDER=
